<svg width="421" height="415" viewBox="0 0 421 415" fill="none" xmlns="http://www.w3.org/2000/svg">
<path d="M199.544 0.267472C254.437 -2.49078 308.257 16.1687 349.662 52.3137C391.377 88.5972 416.732 140.143 420.012 195.331C423.122 249.293 404.762 302.296 368.942 342.773C360.887 351.971 352.012 360.413 342.427 367.998C341.574 368.681 339.317 370.731 338.457 370.783C337.874 369.776 338.102 340.728 338.102 336.773L338.099 277.966L338.157 153.172C326.249 153.306 314.104 153.187 302.179 153.188C302.404 170.013 302.234 187.206 302.234 204.053V297.428L302.239 359.568C302.247 370.288 302.544 382.708 302.172 393.306C276.979 406.003 244.129 413.758 215.989 414.168C196.071 414.251 181.813 413.241 162.093 408.771C108.115 396.381 61.2186 363.166 31.6189 316.358C2.49239 270.146 -7.01586 214.231 5.19914 160.99C14.2389 122.415 34.1626 87.2462 62.6034 59.6627C68.4836 53.8697 79.1271 44.409 86.1016 40.0745C86.3744 45.5885 86.2556 51.9897 86.2491 57.5472L86.2341 84.5957L86.2334 169.517L86.2331 232.783L86.2571 252.008C86.2676 255.363 86.4291 259.928 86.1634 263.146C98.0944 263.003 110.223 263.091 122.162 263.106C121.704 225.143 122.104 186.369 122.105 148.351L122.125 19.2287C126.003 17.037 132.422 14.7015 136.633 13.1135C157.796 5.13222 177.186 2.00422 199.544 0.267472ZM194.174 362.146L229.069 362.098C229.294 359.498 229.134 354.568 229.122 351.808L229.099 332.988L229.107 270.741L229.104 128.936C229.104 104.178 228.837 78.8957 229.157 54.1715L194.197 54.1882L194.23 266.271L194.231 332.056L194.253 351.953C194.257 354.446 194.42 359.868 194.174 362.146Z" fill="#FEFEFE"/>
</svg>
