<svg width="60" height="19" viewBox="0 0 60 19" fill="none" xmlns="http://www.w3.org/2000/svg">
<path d="M9.22178 4.0071C10.6583 3.93385 12.0666 4.42942 13.1502 5.3894C14.2418 6.35305 14.9053 7.72205 14.9911 9.18779C15.0725 10.621 14.592 12.0287 13.6547 13.1037C13.4439 13.348 13.2117 13.5722 12.9608 13.7737C12.9385 13.7918 12.8794 13.8462 12.8569 13.8476C12.8417 13.8209 12.8476 13.0494 12.8476 12.9443L12.8476 11.3825L12.8491 8.06808C12.5375 8.07164 12.2197 8.06848 11.9076 8.06852C11.9135 8.51536 11.909 8.972 11.909 9.41944V11.8994L11.9092 13.5498C11.9094 13.8345 11.9172 14.1643 11.9074 14.4458C11.2482 14.783 10.3885 14.989 9.65213 14.9999C9.13089 15.0021 8.75778 14.9752 8.24176 14.8565C6.82922 14.5275 5.60201 13.6453 4.82742 12.4021C4.06522 11.1748 3.8164 9.68975 4.13605 8.27572C4.37261 7.25122 4.89399 6.31717 5.63824 5.58458C5.79212 5.43072 6.07065 5.17946 6.25316 5.06434C6.2603 5.21078 6.25719 5.38079 6.25702 5.52839L6.25663 6.24677L6.25661 8.50219L6.2566 10.1825L6.25723 10.6931C6.2575 10.7822 6.26173 10.9034 6.25478 10.9889C6.56699 10.9851 6.88437 10.9874 7.1968 10.9878C7.18483 9.97957 7.1953 8.94976 7.19531 7.94006L7.19584 4.51069C7.29732 4.45248 7.4653 4.39046 7.57549 4.34828C8.12931 4.13631 8.6367 4.05323 9.22178 4.0071ZM9.08127 13.6182L9.99442 13.617C10.0003 13.5479 9.99612 13.417 9.99579 13.3437L9.9952 12.8438L9.9954 11.1906L9.99534 7.42441C9.99534 6.76687 9.98834 6.09539 9.99671 5.43874L9.08186 5.43918L9.08274 11.0719L9.08274 12.8191L9.08334 13.3475C9.08344 13.4137 9.08769 13.5577 9.08127 13.6182Z" fill="black"/>
<path d="M24.7634 13L23.9621 11.0501H20.6335L19.8322 12.9805L19 12.6588L21.8149 6.07799H22.8834L25.6572 12.6588L24.7634 13ZM20.9417 10.2702H23.6436L22.2978 6.99443L20.9417 10.2702Z" fill="black"/>
<path d="M28.5746 12.9805C28.1842 12.9805 27.8418 12.9708 27.5472 12.9513C27.2596 12.9318 26.9719 12.909 26.6843 12.883V6.09749C27.0062 6.065 27.3212 6.04225 27.6294 6.02925C27.9376 6.00975 28.2904 6 28.6876 6C29.304 6 29.8348 6.09099 30.28 6.27298C30.732 6.45497 31.1019 6.7052 31.3895 7.02368C31.684 7.34215 31.8998 7.71263 32.0368 8.1351C32.1806 8.55107 32.2525 8.99954 32.2525 9.4805C32.2525 9.95497 32.1806 10.4034 32.0368 10.8259C31.8929 11.2484 31.6703 11.6221 31.369 11.9471C31.0745 12.2656 30.6944 12.519 30.2286 12.7075C29.7697 12.8895 29.2184 12.9805 28.5746 12.9805ZM28.6054 12.1713C29.2218 12.1713 29.7252 12.0576 30.1156 11.8301C30.506 11.6026 30.7937 11.2874 30.9786 10.8844C31.1635 10.4749 31.256 10.007 31.256 9.4805C31.256 9.01253 31.1635 8.57382 30.9786 8.16435C30.7937 7.75487 30.5094 7.42665 30.1259 7.17967C29.7423 6.92618 29.2526 6.79944 28.6568 6.79944C28.4582 6.79944 28.2767 6.80594 28.1123 6.81894C27.9479 6.82544 27.7972 6.83519 27.6603 6.84819V12.1226C27.8041 12.1421 27.9548 12.1551 28.1123 12.1616C28.2698 12.1681 28.4342 12.1713 28.6054 12.1713Z" fill="black"/>
<path d="M38.428 13L37.6267 11.0501H34.2981L33.4967 12.9805L32.6646 12.6588L35.4795 6.07799H36.548L39.3218 12.6588L38.428 13ZM34.6063 10.2702H37.3082L35.9624 6.99443L34.6063 10.2702Z" fill="black"/>
<path d="M40.1477 11.3077V10.8747H42.0397V11.3077H40.1477Z" fill="black"/>
<path d="M44.2189 12.9659C43.9407 12.9659 43.7199 12.8796 43.5567 12.7071C43.3972 12.5311 43.3174 12.2811 43.3174 11.9572V10.6687H42.8166V10.2568H43.3286L43.4343 9.39073H43.8183V10.2568H44.6196V10.6687H43.8183V11.9942C43.8183 12.1984 43.8628 12.341 43.9518 12.4219C44.0446 12.5029 44.154 12.5434 44.2801 12.5434C44.3729 12.5434 44.4601 12.5293 44.5417 12.5012C44.627 12.473 44.7049 12.4396 44.7754 12.4008L44.9145 12.781C44.8403 12.8233 44.7402 12.8638 44.614 12.9025C44.4879 12.9448 44.3562 12.9659 44.2189 12.9659Z" fill="black"/>
<path d="M46.4667 12.9659C46.0512 12.9659 45.721 12.8409 45.4762 12.5909C45.235 12.3375 45.1145 11.9836 45.1145 11.5295C45.1145 11.2549 45.1683 11.0102 45.2759 10.7954C45.3871 10.5772 45.5411 10.4064 45.7377 10.2832C45.9344 10.1565 46.1625 10.0931 46.4222 10.0931C46.7004 10.0931 46.9305 10.1512 47.1122 10.2674C47.2977 10.38 47.4369 10.5332 47.5296 10.7268C47.6224 10.9204 47.6687 11.1334 47.6687 11.3658C47.6687 11.489 47.6632 11.6087 47.652 11.7249H45.6264C45.6598 11.9819 45.7544 12.1825 45.9102 12.3269C46.0661 12.4712 46.272 12.5434 46.5279 12.5434C46.6949 12.5434 46.8451 12.5276 46.9787 12.4959C47.1122 12.4607 47.2402 12.4167 47.3627 12.3639L47.4795 12.7705C47.346 12.8268 47.1957 12.8726 47.0288 12.9078C46.8618 12.9465 46.6745 12.9659 46.4667 12.9659ZM45.6209 11.3394H47.2068C47.2068 11.0718 47.1364 10.8659 46.9954 10.7215C46.8544 10.5772 46.6596 10.505 46.4111 10.505C46.1959 10.505 46.0178 10.5772 45.8769 10.7215C45.7359 10.8623 45.6505 11.0683 45.6209 11.3394Z" fill="black"/>
<path d="M49.4436 12.9659C49.2025 12.9659 48.9836 12.9078 48.7869 12.7916C48.5903 12.6754 48.4327 12.5117 48.3139 12.3005C48.1989 12.0857 48.1414 11.834 48.1414 11.5453C48.1414 11.2707 48.1989 11.0243 48.3139 10.806C48.4327 10.5877 48.594 10.4152 48.7981 10.2885C49.0058 10.1582 49.2433 10.0931 49.5104 10.0931C49.6773 10.0931 49.8276 10.1212 49.9611 10.1776C50.0984 10.2304 50.2171 10.2973 50.3173 10.3782V10.1565H50.7736V12.2371C50.7736 12.3709 50.807 12.4589 50.8738 12.5012C50.9442 12.5399 51.0203 12.5592 51.1019 12.5592L50.9962 12.9289C50.64 12.9289 50.4249 12.7916 50.3507 12.517C50.2653 12.6297 50.1485 12.7335 50.0001 12.8286C49.8554 12.9201 49.6699 12.9659 49.4436 12.9659ZM49.5549 12.5434C49.6959 12.5434 49.8294 12.5117 49.9556 12.4484C50.0817 12.3815 50.1874 12.2987 50.2728 12.2002V10.7268C50.1726 10.6599 50.0613 10.6071 49.9389 10.5684C49.8202 10.5261 49.694 10.505 49.5605 10.505C49.3824 10.505 49.2247 10.549 49.0875 10.637C48.9539 10.7215 48.8482 10.8412 48.7703 10.9961C48.6923 11.1475 48.6534 11.3253 48.6534 11.5295C48.6534 11.7266 48.6923 11.9027 48.7703 12.0576C48.8482 12.209 48.9557 12.3287 49.093 12.4167C49.2303 12.5012 49.3842 12.5434 49.5549 12.5434Z" fill="black"/>
<path d="M51.7707 12.9025V10.1565H52.2549V10.6159C52.3588 10.468 52.4905 10.3448 52.65 10.2462C52.8095 10.1441 52.9913 10.0931 53.1953 10.0931C53.4253 10.0931 53.6127 10.1459 53.7574 10.2515C53.9058 10.3571 54.0096 10.4979 54.069 10.674C54.184 10.512 54.3194 10.3747 54.4752 10.2621C54.6348 10.1494 54.8314 10.0931 55.0651 10.0931C55.3805 10.0931 55.6142 10.1881 55.7663 10.3782C55.9221 10.5648 56 10.8095 56 11.1123V12.9025H55.4992V11.1493C55.4992 10.9591 55.4528 10.806 55.36 10.6898C55.2673 10.5701 55.1393 10.5103 54.9761 10.5103C54.8091 10.5103 54.6533 10.5701 54.5086 10.6898C54.3677 10.806 54.2434 10.9433 54.1358 11.1017V12.9025H53.6349V11.1493C53.6349 10.9591 53.5886 10.806 53.4958 10.6898C53.4031 10.5701 53.2751 10.5103 53.1119 10.5103C52.9486 10.5103 52.7947 10.5684 52.65 10.6845C52.5053 10.7972 52.3792 10.931 52.2716 11.0859V12.9025H51.7707Z" fill="black"/>
</svg>
